<svg viewBox="0 0 20 20" height="20" width="20" xmlns="http://www.w3.org/2000/svg"><path clip-rule="evenodd" d="m2 5c0-1.10457.89543-2 2-2h12c1.1046 0 2 .89543 2 2v10c0 1.1046-.8954 2-2 2h-12c-1.10457 0-2-.8954-2-2zm3.29289 1.29289c.39053-.39052 1.02369-.39052 1.41422 0l3 3c.39049.39053.39049 1.02371 0 1.41421l-3 3c-.39053.3905-1.02369.3905-1.41422 0-.39052-.3905-.39052-1.0237 0-1.4142l2.2929-2.2929-2.2929-2.29289c-.39052-.39053-.39052-1.02369 0-1.41422zm5.70711 5.70711c-.5523 0-1 .4477-1 1s.4477 1 1 1h3c.5523 0 1-.4477 1-1s-.4477-1-1-1z" fill="#000000" fill-rule="evenodd"/></svg>